G05
M48
INCH,TZ
FMAT,2
T1C000.02500
T2C000.02800
T3C000.03200
T4C000.03600
T5C000.03937
T6C000.04400
T7C000.04500
T8C000.11800
T9C000.16000
%
T001
X0.20250Y2.95250
X0.20250Y3.15250
T002
X0.55250Y2.05250
X0.55250Y2.15250
X1.60250Y1.45250
X1.70250Y1.45250
T003
X0.75250Y1.75250
X0.75250Y2.15250
X0.75250Y2.55250
X0.75250Y2.85250
X0.90250Y2.55250
X0.90250Y2.85250
X1.15250Y2.40250
X1.15250Y2.70250
X1.25250Y1.20250
X1.25250Y1.35250
X1.32750Y1.27750
X1.45250Y1.80250
X1.45250Y1.90250
X1.45250Y2.00250
X1.45250Y2.10250
X1.75250Y1.80250
X1.75250Y1.90250
X1.75250Y2.00250
X1.75250Y2.10250
X1.85250Y1.45250
X1.85250Y2.25250
X1.85250Y2.45250
X2.05250Y1.45250
X2.15250Y1.15250
X2.15250Y1.30250
X2.20250Y2.70250
X2.20250Y2.85250
X2.22750Y1.22750
X2.27750Y2.77750
X2.65250Y1.60250
X2.65250Y1.75250
X2.65250Y2.30250
X2.65250Y2.45250
X2.72750Y1.67750
X2.72750Y2.37750
T004
X0.15250Y2.45250
X0.15250Y3.45250
T005
X2.05250Y2.30250
X2.05250Y2.40250
X2.05250Y2.50250
T006
X2.20250Y1.95250
X2.30250Y1.95250
X2.40250Y1.95250
T007
X1.45250Y0.65250
X1.45250Y3.35250
X1.85250Y0.65250
X1.85250Y3.35250
X2.60250Y0.90250
X2.60250Y3.05250
X3.00250Y0.90250
X3.00250Y3.05250
X3.05250Y2.00250
X3.45250Y2.00250
T008
X0.35565Y1.00250
X0.47376Y0.81746
X0.59187Y1.00250
X3.41313Y0.95250
X3.53124Y1.13754
X3.64935Y0.95250
T009
X0.40250Y3.60250
M30
