G04 DesignSpark PCB Gerber Version 9.0 Build 5115 *
G04 #@! TF.Part,Single*
G04 #@! TF.FileFunction,Soldermask,Top *
G04 #@! TF.FilePolarity,Negative *
%FSLAX35Y35*%
%MOIN*%
G04 #@! TA.AperFunction,ComponentPad*
%ADD119R,0.06200X0.06200*%
%ADD114R,0.07000X0.07000*%
G04 #@! TA.AperFunction,ViaPad*
%ADD95C,0.05400*%
G04 #@! TA.AperFunction,ComponentPad*
%ADD97C,0.06600*%
%ADD127C,0.06900*%
%ADD115C,0.07000*%
%ADD124O,0.11600X0.06600*%
G04 #@! TA.AperFunction,SMDPad,CuDef*
%ADD129R,0.05550X0.02600*%
G04 #@! TA.AperFunction,ComponentPad*
%AMT117*0 Octagon Pad at angle 0*4,1,8,-0.01159,-0.02800,0.01159,-0.02800,0.02800,-0.01159,0.02800,0.01159,0.01159,0.02800,-0.01159,0.02800,-0.02800,0.01159,-0.02800,-0.01159,-0.01159,-0.02800,0*%
%ADD117T117*%
%AMT77*0 Octagon Pad at angle 0*4,1,8,-0.01200,-0.02900,0.01200,-0.02900,0.02900,-0.01200,0.02900,0.01200,0.01200,0.02900,-0.01200,0.02900,-0.02900,0.01200,-0.02900,-0.01200,-0.01200,-0.02900,0*%
%ADD77T77*%
G04 #@! TA.AperFunction,WasherPad*
%ADD113C,0.20600*%
G04 #@! TA.AperFunction,ComponentPad*
%AMT118*0 Octagon Pad at angle 0*4,1,8,-0.02195,-0.05300,0.02195,-0.05300,0.05300,-0.02195,0.05300,0.02195,0.02195,0.05300,-0.02195,0.05300,-0.05300,0.02195,-0.05300,-0.02195,-0.02195,-0.05300,0*%
%ADD118T118*%
X0Y0D02*
D02*
D77*
X75250Y175250D03*
Y215250D03*
Y255250D03*
Y285250D03*
X90250Y255250D03*
Y285250D03*
X115250Y240250D03*
Y270250D03*
X185250Y145250D03*
Y225250D03*
Y245250D03*
X205250Y145250D03*
D02*
D95*
X55250Y205250D03*
Y215250D03*
X160250Y145250D03*
X170250D03*
D02*
D97*
X125250Y120250D03*
Y135250D03*
X132750Y127750D03*
X215250Y115250D03*
Y130250D03*
X220250Y270250D03*
Y285250D03*
X222750Y122750D03*
X227750Y277750D03*
X265250Y160250D03*
Y175250D03*
Y230250D03*
Y245250D03*
X272750Y167750D03*
Y237750D03*
D02*
D113*
X35565Y100250D03*
X40250Y40250D03*
Y360250D03*
X47376Y81746D03*
X59187Y100250D03*
X341313Y95250D03*
X353124Y113754D03*
X360250Y40250D03*
Y360250D03*
X364935Y95250D03*
D02*
D114*
X220250Y195250D03*
D02*
D115*
X230250D03*
X240250D03*
D02*
D117*
X20250Y295250D03*
Y315250D03*
D02*
D118*
X145250Y65250D03*
Y335250D03*
X185250Y65250D03*
Y335250D03*
X260250Y90250D03*
Y305250D03*
X300250Y90250D03*
Y305250D03*
X305250Y200250D03*
X345250D03*
D02*
D119*
X15250Y245250D03*
Y345250D03*
D02*
D124*
X145250Y180250D03*
Y190250D03*
Y200250D03*
Y210250D03*
X175250Y180250D03*
Y190250D03*
Y200250D03*
Y210250D03*
D02*
D127*
X205250Y230250D03*
Y240250D03*
Y250250D03*
D02*
D129*
X144925Y247750D03*
Y252750D03*
Y257750D03*
Y262750D03*
X165575Y247750D03*
Y252750D03*
Y257750D03*
Y262750D03*
X0Y0D02*
M02*
