G04 DesignSpark PCB Gerber Version 9.0 Build 5115 *
G04 #@! TF.Part,Single*
G04 #@! TF.FileFunction,Other,power_supply_pcb - Top Documentation *
G04 #@! TF.FilePolarity,Positive *
%FSLAX35Y35*%
%MOIN*%
%ADD11C,0.00100*%
%ADD100C,0.00300*%
X0Y0D02*
D02*
D11*
X52750Y198000D02*
X57750D01*
X53250Y201000D02*
X55250Y198000D01*
X52750Y201000*
X57750*
X55250Y198000*
X54750Y201000*
X53750D02*
X55250Y198000D01*
X54250Y201000*
X55250Y202000D02*
Y197000D01*
Y217000D02*
G75*
G03Y203500J-6750D01*
G01*
G75*
G03Y217000J6750*
G01*
X56250Y201000D02*
X55250Y198000D01*
X55750Y201000*
X57250D02*
X55250Y198000D01*
X56750Y201000*
X147400Y246750D02*
Y248750D01*
X143050*
Y246750*
X147400*
Y251750D02*
Y253750D01*
X143050*
Y251750*
X147400*
Y256750D02*
Y258750D01*
X143050*
Y256750*
X147400*
Y261750D02*
Y263750D01*
X143050*
Y261750*
X147400*
X153000Y147750D02*
Y142750D01*
X156000Y143250D02*
X153000Y145250D01*
X156000Y143750*
Y144250D02*
X153000Y145250D01*
X156000Y144750*
Y146750D02*
X153000Y145250D01*
X156000Y146250*
Y147250D02*
X153000Y145250D01*
X156000Y147750*
Y142750*
X153000Y145250*
X156000Y145750*
X156450Y245400D02*
G75*
G03X154050I-1200D01*
G01*
X157000Y145250D02*
X152000D01*
X163100Y248750D02*
Y246750D01*
X167450*
Y248750*
X163100*
Y253750D02*
Y251750D01*
X167450*
Y253750*
X163100*
Y258750D02*
Y256750D01*
X167450*
Y258750*
X163100*
Y263750D02*
Y261750D01*
X167450*
Y263750*
X163100*
Y265100D02*
X147400D01*
Y245400*
X163100*
Y265100*
X172000Y145250D02*
G75*
G03X158500I-6750D01*
G01*
G75*
G03X172000I6750*
G01*
X210150Y189050D02*
X250350D01*
Y206350*
X210150*
Y189050*
Y201350D02*
X250350D01*
X211950Y190050D02*
G75*
G03X210350I-800D01*
G01*
G75*
G03X211950I800*
G01*
X227281Y203069D02*
Y204944D01*
X226500D02*
X228063D01*
X229000Y203069D02*
X229781Y204944D01*
X230563Y203069*
X229313Y203850D02*
X230250D01*
X232594Y204006D02*
X232906Y203850D01*
X233063Y203537*
X232906Y203225*
X232594Y203069*
X231500*
Y204944*
X232594*
X232906Y204787*
X233063Y204475*
X232906Y204163*
X232594Y204006*
X231500*
D02*
D100*
X164100Y248513D02*
X161600D01*
X163475Y249763D02*
X162225Y247263D01*
X163475D02*
X162225Y249763D01*
X0Y0D02*
M02*
